<svg width="295" height="300" viewBox="0 0 295 300" fill="none" xmlns="http://www.w3.org/2000/svg">
<path fill-rule="evenodd" clip-rule="evenodd" d="M64.5619 35.1328C68.5258 35.1641 72.4797 35.5386 76.3796 36.2523C78.2636 36.2523 80.062 37.0274 81.8603 37.5441C88.133 27.0461 96.7904 18.1924 107.123 11.7088C119.248 4.05814 133.272 0 147.586 0C161.9 0 175.924 4.05814 188.048 11.7088C198.381 18.1924 207.038 27.0461 213.311 37.5441C215.109 37.0274 216.908 36.5968 218.791 36.2523C222.69 35.5304 226.645 35.1558 230.609 35.1328C246.449 35.1557 261.727 41.0409 273.528 51.6659C285.33 62.291 292.829 76.9125 294.597 92.7422C296.365 108.572 292.277 124.502 283.113 137.495C273.949 150.488 260.351 159.634 244.91 163.19V230.19C244.909 232.687 244.416 235.16 243.461 237.466C242.506 239.771 241.107 241.864 239.344 243.624C237.606 245.412 235.527 246.829 233.231 247.791C230.936 248.753 228.471 249.239 225.985 249.222H149.94L102.841 296.414C101.192 298.163 99.0325 299.339 96.6752 299.773C94.3742 300.232 91.9893 299.992 89.8243 299.084C87.6289 298.156 85.7525 296.601 84.4281 294.611C83.1036 292.621 82.3895 290.283 82.3741 287.888V249.222H69.015C66.5284 249.239 64.0638 248.753 61.7684 247.791C59.4731 246.829 57.3941 245.412 55.6559 243.624C53.8932 241.864 52.494 239.771 51.5387 237.466C50.5834 235.16 50.0909 232.687 50.0895 230.19V163.19C34.642 159.632 21.0381 150.479 11.8743 137.477C2.71052 124.475 -1.37129 108.535 0.407803 92.6995C2.1869 76.8637 9.70237 62.2412 21.5198 51.623C33.3372 41.0049 48.629 35.1347 64.4763 35.1328H64.5619ZM73.8961 50.1173C70.8149 49.5627 67.6921 49.2746 64.5619 49.2561C51.6413 49.1059 39.1562 53.948 29.6817 62.7836C20.2071 71.6192 14.4659 83.7745 13.6421 96.7423C12.8183 109.71 16.9748 122.501 25.2543 132.477C33.5338 142.454 45.3047 148.854 58.1392 150.358L64.2194 151.133V230.19C64.2466 231.509 64.7663 232.769 65.6752 233.72C66.6297 234.61 67.8846 235.103 69.1863 235.098H96.5895V282.98L144.117 235.098H225.985C226.632 235.122 227.278 235.012 227.881 234.774C228.484 234.536 229.032 234.175 229.49 233.714C229.948 233.254 230.307 232.703 230.543 232.096C230.78 231.49 230.89 230.841 230.866 230.19V151.133L237.032 150.358C249.866 148.854 261.637 142.454 269.917 132.477C278.196 122.501 282.353 109.71 281.529 96.7423C280.705 83.7745 274.964 71.6192 265.489 62.7836C256.015 53.948 243.53 49.1059 230.609 49.2561C227.479 49.2708 224.355 49.5589 221.275 50.1173C218.361 50.7281 215.498 51.5631 212.711 52.6147L206.631 55.026L203.805 49.17C198.77 38.5359 190.83 29.5616 180.913 23.2945C170.997 17.0273 159.512 13.7259 147.8 13.7756C136.139 13.7302 124.706 17.0152 114.83 23.2485C104.908 29.5342 96.9296 38.4823 91.794 49.0839L89.0536 55.026L82.9735 52.6147C80.016 51.549 76.9812 50.714 73.8961 50.1173Z" fill="#06C160"/>
</svg>
