<?xml version="1.0" encoding="utf-8"?><svg width="62" height="52" viewBox="0 0 62 52" xmlns="http://www.w3.org/2000/svg" xmlns:xlink="http://www.w3.org/1999/xlink"><svg width="16" height="16" fill="none" viewBox="-2 -2 16 16" id="comments-count" x="20" y="34" xmlns="http://www.w3.org/2000/svg"><g clip-path="url(#aclip0_500_1910)"><path d="M10 1H2c-.55 0-1 .45-1 1v9l2-2h7c.55 0 1-.45 1-1V2c0-.55-.45-1-1-1zm0 7H3L2 9V2h8v6zM3.5 4.5h1v1h-1v-1zm2 0h1v1h-1v-1zm2 0h1v1h-1v-1z" fill="#06C160"/></g><defs><clipPath id="aclip0_500_1910"><path fill="#fff" d="M0 0h12v12H0z"/></clipPath></defs></svg><svg width="20" height="18" fill="none" viewBox="-2 -2 20 18" id="quote" y="34" xmlns="http://www.w3.org/2000/svg"><path fill-rule="evenodd" clip-rule="evenodd" d="M15.93 2.187C13.544 3.4 12.35 4.829 12.35 6.469c1.017.121 1.858.551 2.523 1.29.665.74.997 1.595.997 2.566 0 1.033-.322 1.904-.968 2.612-.645.709-1.457 1.063-2.435 1.063-1.095 0-2.043-.46-2.845-1.382-.802-.921-1.203-2.04-1.203-3.356 0-3.947 2.132-7.035 6.395-9.262l1.115 2.187zm-8.42 0C5.104 3.4 3.902 4.829 3.902 6.469c1.036.121 1.887.551 2.552 1.29.665.74.997 1.595.997 2.566 0 1.033-.327 1.904-.983 2.612C5.813 13.646 4.997 14 4.018 14c-1.094 0-2.038-.46-2.83-1.382C.396 11.697 0 10.578 0 9.262 0 5.315 2.122 2.227 6.366 0L7.51 2.187z" fill="#06C160"/></svg><svg width="34" height="34" fill="none" viewBox="-2 -2 34 34" id="review-quote" xmlns="http://www.w3.org/2000/svg"><path d="M0 29.4l.63-5.11c1.867.14 3.22-.233 4.06-1.12.84-.887 1.353-2.077 1.54-3.57.187-1.493.233-3.103.14-4.83H0V0h11.97v17.57c0 4.293-1.097 7.513-3.29 9.66C6.533 29.377 3.64 30.1 0 29.4zm17.78 0l.63-5.11c1.867.14 3.22-.233 4.06-1.12.84-.887 1.353-2.077 1.54-3.57.187-1.493.233-3.103.14-4.83h-6.37V0h11.97v17.57c0 4.293-1.097 7.513-3.29 9.66-2.147 2.147-5.04 2.87-8.68 2.17z" fill="#E6F9EF"/></svg><svg width="28" height="28" fill="none" viewBox="-2 -2 28 28" id="send" x="34" xmlns="http://www.w3.org/2000/svg"><path d="M15.832 8.175l-5.723 5.784-6.51-4.071c-.932-.584-.738-2 .317-2.31L19.37 3.054c.966-.283 1.862.62 1.575 1.589l-4.573 15.445c-.313 1.056-1.722 1.245-2.3.308l-3.967-6.435" stroke="#06C160" stroke-width="1.5" stroke-linecap="round" stroke-linejoin="round"/></svg></svg>