<svg width="327" height="332" viewBox="0 0 327 332" fill="none" xmlns="http://www.w3.org/2000/svg">
<path fill-rule="evenodd" clip-rule="evenodd" d="M71.5652 38.8803C75.9591 38.9149 80.3419 39.3294 84.6649 40.1193C86.7532 40.1193 88.7467 40.977 90.7401 41.5488C97.6932 29.931 107.29 20.1329 118.743 12.9577C132.183 4.49101 147.728 0 163.595 0C179.462 0 195.007 4.49101 208.447 12.9577C219.9 20.1329 229.496 29.931 236.449 41.5488C238.443 40.977 240.436 40.5005 242.525 40.1193C246.847 39.3203 251.23 38.9057 255.624 38.8803C273.183 38.9057 290.117 45.4186 303.199 57.1769C316.281 68.9353 324.594 85.1165 326.553 102.635C328.513 120.153 323.982 137.782 313.824 152.161C303.666 166.54 288.592 176.662 271.477 180.597V254.743C271.475 257.507 270.929 260.244 269.87 262.795C268.812 265.347 267.26 267.663 265.307 269.61C263.38 271.589 261.075 273.158 258.531 274.222C255.987 275.287 253.255 275.825 250.498 275.805H166.205L113.997 328.032C112.168 329.967 109.775 331.268 107.162 331.748C104.611 332.257 101.968 331.991 99.568 330.986C97.1344 329.96 95.0545 328.238 93.5864 326.036C92.1183 323.833 91.3266 321.247 91.3096 318.596V275.805H76.5014C73.7451 275.825 71.0131 275.287 68.4688 274.222C65.9244 273.158 63.6199 271.589 61.6931 269.61C59.7393 267.663 58.1883 265.347 57.1294 262.795C56.0705 260.244 55.5245 257.507 55.5229 254.743V180.597C38.3998 176.66 23.3202 166.53 13.1624 152.142C3.00454 137.753 -1.52005 120.112 0.45204 102.587C2.42412 85.0625 10.7548 68.8802 23.8541 57.1295C36.9535 45.3787 53.904 38.8824 71.4704 38.8803H71.5652ZM81.912 55.4632C78.4965 54.8494 75.0349 54.5306 71.5652 54.5101C57.2431 54.3439 43.4036 59.7024 32.9014 69.4805C22.3991 79.2586 16.0351 92.7104 15.122 107.061C14.2088 121.412 18.8162 135.568 27.9938 146.608C37.1714 157.649 50.2191 164.732 64.4459 166.397L71.1856 167.254V254.743C71.2157 256.203 71.7918 257.598 72.7993 258.651C73.8574 259.635 75.2484 260.18 76.6912 260.175H107.067V313.164L159.75 260.175H250.498C251.216 260.202 251.932 260.08 252.6 259.816C253.269 259.553 253.876 259.154 254.383 258.644C254.891 258.134 255.289 257.524 255.551 256.853C255.814 256.182 255.936 255.464 255.909 254.743V167.254L262.744 166.397C276.971 164.732 290.018 157.649 299.196 146.608C308.373 135.568 312.981 121.412 312.068 107.061C311.155 92.7104 304.79 79.2586 294.288 69.4805C283.786 59.7024 269.947 54.3439 255.624 54.5101C252.155 54.5263 248.692 54.8452 245.277 55.4632C242.047 56.1391 238.874 57.0631 235.785 58.227L229.045 60.8955L225.913 54.4148C220.331 42.6464 211.53 32.7149 200.538 25.7792C189.545 18.8436 176.815 15.19 163.832 15.245C150.907 15.1947 138.234 18.8301 127.286 25.7284C116.288 32.6845 107.444 42.587 101.751 54.3195L98.7137 60.8955L91.974 58.227C88.6957 57.0475 85.3317 56.1235 81.912 55.4632Z" fill="#06C160"/>
</svg>
